<svg width="40" height="40" viewBox="0 0 40 40" fill="none" xmlns="http://www.w3.org/2000/svg">
<path d="M13.7083 36.2916C13.486 36.0693 13.361 35.7916 13.3333 35.4582C13.3055 35.1249 13.3888 34.8332 13.5833 34.5832L21.6666 23.3332L8.16659 22.0416C7.44436 21.986 6.96492 21.611 6.72825 20.9166C6.4927 20.2221 6.6527 19.6388 7.20825 19.1666L24.4999 3.66656C24.7499 3.41656 25.0488 3.29823 25.3966 3.31156C25.7433 3.326 26.0416 3.45823 26.2916 3.70823C26.5138 3.93045 26.6388 4.20823 26.6666 4.54156C26.6944 4.87489 26.611 5.16656 26.4166 5.41656L18.3333 16.6666L31.8333 17.9582C32.5555 18.0138 33.0344 18.3888 33.2699 19.0832C33.5066 19.7777 33.3471 20.361 32.7916 20.8332L15.4999 36.3332C15.2499 36.5832 14.9516 36.701 14.6049 36.6866C14.2571 36.6732 13.9583 36.5416 13.7083 36.2916Z" fill="#67FF76"/>
</svg>
