<svg width="32" height="32" viewBox="0 0 32 32" fill="none" xmlns="http://www.w3.org/2000/svg">
<g clip-path="url(#clip0_2794_662)">
<rect width="32" height="32" rx="4" fill="#67FF76"/>
<path d="M15.2367 35.0313C15.0411 34.8357 14.9311 34.5911 14.9066 34.2977C14.8822 34.0043 14.9555 33.7476 15.1267 33.5275L22.242 23.6248L10.3587 22.4878C9.72296 22.4389 9.30093 22.1088 9.09261 21.4975C8.88526 20.8863 9.0261 20.3728 9.51512 19.9571L24.736 6.31338C24.956 6.09332 25.2191 5.98915 25.5253 6.00089C25.8304 6.01361 26.093 6.12999 26.3131 6.35005C26.5087 6.54566 26.6187 6.79017 26.6432 7.08359C26.6676 7.377 26.5943 7.63374 26.4231 7.8538L19.3078 17.7565L31.1911 18.8935C31.8268 18.9424 32.2483 19.2725 32.4557 19.8838C32.664 20.4951 32.5237 21.0085 32.0346 21.4242L16.8138 35.0679C16.5937 35.288 16.3311 35.3917 16.026 35.379C15.7198 35.3672 15.4568 35.2513 15.2367 35.0313Z" fill="#151715"/>
</g>
<defs>
<clipPath id="clip0_2794_662">
<rect width="32" height="32" rx="4" fill="white"/>
</clipPath>
</defs>
</svg>
