<svg width="48" height="48" viewBox="0 0 48 48" fill="none" xmlns="http://www.w3.org/2000/svg">
<path d="M13.6 40C12.6 40 11.75 39.65 11.05 38.95C10.35 38.25 10 37.4 10 36.4C10 35.7 10.2 35.0413 10.6 34.424C11 33.808 11.5333 33.3667 12.2 33.1L20 30V25.5C18.2 27.6 16.1087 29.208 13.726 30.324C11.342 31.4413 8.76667 32 6 32V28C8.26667 28 10.3253 27.5333 12.176 26.6C14.0253 25.6667 15.7 24.3333 17.2 22.6L19.9 19.4C20.3 18.9333 20.7667 18.5833 21.3 18.35C21.8333 18.1167 22.4 18 23 18H25C25.6 18 26.1667 18.1167 26.7 18.35C27.2333 18.5833 27.7 18.9333 28.1 19.4L30.8 22.6C32.3 24.3333 33.9753 25.6667 35.826 26.6C37.6753 27.5333 39.7333 28 42 28V32C39.2333 32 36.6587 31.4413 34.276 30.324C31.892 29.208 29.8 27.6 28 25.5V30L35.8 33.1C36.4667 33.3667 37 33.808 37.4 34.424C37.8 35.0413 38 35.7 38 36.4C38 37.4 37.65 38.25 36.95 38.95C36.25 39.65 35.4 40 34.4 40H20V39C20 38.1333 20.2833 37.4167 20.85 36.85C21.4167 36.2833 22.1333 36 23 36H29C29.3 36 29.542 35.9087 29.726 35.726C29.9087 35.542 30 35.3 30 35C30 34.7 29.9087 34.458 29.726 34.274C29.542 34.0913 29.3 34 29 34H23C21.6 34 20.4167 34.4833 19.45 35.45C18.4833 36.4167 18 37.6 18 39V40H13.6ZM24 16C22.9 16 21.9587 15.608 21.176 14.824C20.392 14.0413 20 13.1 20 12C20 10.9 20.392 9.95867 21.176 9.176C21.9587 8.392 22.9 8 24 8C25.1 8 26.042 8.392 26.826 9.176C27.6087 9.95867 28 10.9 28 12C28 13.1 27.6087 14.0413 26.826 14.824C26.042 15.608 25.1 16 24 16Z" fill="#ECEEEC" fill-opacity="0.5"/>
</svg>
