<svg width="40" height="40" viewBox="0 0 40 40" fill="none" xmlns="http://www.w3.org/2000/svg">
<path d="M18.3334 30C15.1112 30 12.3612 28.8611 10.0834 26.5833C7.80564 24.3056 6.66675 21.5556 6.66675 18.3333V5H30.8334C32.4445 5 33.8195 5.56944 34.9584 6.70833C36.0973 7.84722 36.6667 9.22222 36.6667 10.8333C36.6667 12.4444 36.0973 13.8194 34.9584 14.9583C33.8195 16.0972 32.4445 16.6667 30.8334 16.6667H30.0001V18.3333C30.0001 21.5556 28.8612 24.3056 26.5834 26.5833C24.3056 28.8611 21.5556 30 18.3334 30ZM10.0001 13.3333H26.6667V8.33333H10.0001V13.3333ZM18.3334 26.6667C20.639 26.6667 22.6045 25.8539 24.2301 24.2283C25.8545 22.6039 26.6667 20.6389 26.6667 18.3333V16.6667H10.0001V18.3333C10.0001 20.6389 10.8129 22.6039 12.4384 24.2283C14.0629 25.8539 16.0279 26.6667 18.3334 26.6667ZM30.0001 13.3333H30.8334C31.5279 13.3333 32.1179 13.09 32.6034 12.6033C33.0901 12.1178 33.3334 11.5278 33.3334 10.8333C33.3334 10.1389 33.0901 9.54889 32.6034 9.06333C32.1179 8.57667 31.5279 8.33333 30.8334 8.33333H30.0001V13.3333ZM6.66675 35V31.6667H33.3334V35H6.66675Z" fill="#67FF76"/>
</svg>
