<svg width="25" height="25" viewBox="0 0 25 25" fill="none" xmlns="http://www.w3.org/2000/svg">
<path d="M9.5 20.125C9.05 20.125 8.66667 19.9667 8.35 19.65C8.03333 19.3333 7.875 18.95 7.875 18.5C7.875 18.05 8.03333 17.6667 8.35 17.35C8.66667 17.0333 9.05 16.875 9.5 16.875C9.95 16.875 10.3333 17.0333 10.65 17.35C10.9667 17.6667 11.125 18.05 11.125 18.5C11.125 18.95 10.9667 19.3333 10.65 19.65C10.3333 19.9667 9.95 20.125 9.5 20.125ZM15.5 20.125C15.05 20.125 14.6667 19.9667 14.35 19.65C14.0333 19.3333 13.875 18.95 13.875 18.5C13.875 18.05 14.0333 17.6667 14.35 17.35C14.6667 17.0333 15.05 16.875 15.5 16.875C15.95 16.875 16.3333 17.0333 16.65 17.35C16.9667 17.6667 17.125 18.05 17.125 18.5C17.125 18.95 16.9667 19.3333 16.65 19.65C16.3333 19.9667 15.95 20.125 15.5 20.125ZM9.5 14.125C9.05 14.125 8.66667 13.9667 8.35 13.65C8.03333 13.3333 7.875 12.95 7.875 12.5C7.875 12.05 8.03333 11.6667 8.35 11.35C8.66667 11.0333 9.05 10.875 9.5 10.875C9.95 10.875 10.3333 11.0333 10.65 11.35C10.9667 11.6667 11.125 12.05 11.125 12.5C11.125 12.95 10.9667 13.3333 10.65 13.65C10.3333 13.9667 9.95 14.125 9.5 14.125ZM15.5 14.125C15.05 14.125 14.6667 13.9667 14.35 13.65C14.0333 13.3333 13.875 12.95 13.875 12.5C13.875 12.05 14.0333 11.6667 14.35 11.35C14.6667 11.0333 15.05 10.875 15.5 10.875C15.95 10.875 16.3333 11.0333 16.65 11.35C16.9667 11.6667 17.125 12.05 17.125 12.5C17.125 12.95 16.9667 13.3333 16.65 13.65C16.3333 13.9667 15.95 14.125 15.5 14.125ZM9.5 8.125C9.05 8.125 8.66667 7.96667 8.35 7.65C8.03333 7.33333 7.875 6.95 7.875 6.5C7.875 6.05 8.03333 5.66667 8.35 5.35C8.66667 5.03333 9.05 4.875 9.5 4.875C9.95 4.875 10.3333 5.03333 10.65 5.35C10.9667 5.66667 11.125 6.05 11.125 6.5C11.125 6.95 10.9667 7.33333 10.65 7.65C10.3333 7.96667 9.95 8.125 9.5 8.125ZM15.5 8.125C15.05 8.125 14.6667 7.96667 14.35 7.65C14.0333 7.33333 13.875 6.95 13.875 6.5C13.875 6.05 14.0333 5.66667 14.35 5.35C14.6667 5.03333 15.05 4.875 15.5 4.875C15.95 4.875 16.3333 5.03333 16.65 5.35C16.9667 5.66667 17.125 6.05 17.125 6.5C17.125 6.95 16.9667 7.33333 16.65 7.65C16.3333 7.96667 15.95 8.125 15.5 8.125Z" fill="#ECEEEC" fill-opacity="0.5"/>
</svg>
